<?xml version="1.0" encoding="utf-8"?>
<!-- Generator: Adobe Illustrator 24.2.1, SVG Export Plug-In . SVG Version: 6.00 Build 0)  -->
<svg version="1.1" id="Layer_1" xmlns="http://www.w3.org/2000/svg" xmlns:xlink="http://www.w3.org/1999/xlink" x="0px" y="0px"
	 viewBox="0 0 100 100" style="enable-background:new 0 0 100 100;" xml:space="preserve">
<style type="text/css">
	.st0{fill:#1D4C81;}
	.st1{fill:#294B81;}
</style>
<g>
	<g>
		<path class="st0" d="M41.7,37L45,46c0.1,0.2,0.2,0.3,0.4,0.3h7.1c0.3,0,0.5-0.4,0.4-0.7L36.5,4.8c-0.1-0.2-0.2-0.3-0.4-0.3h-7.5
			c-0.2,0-0.3,0.1-0.4,0.3L12,45.6c-0.1,0.3,0.1,0.7,0.4,0.7h6.8c0.2,0,0.3-0.1,0.4-0.3l3.3-8.9H41.7z M32.3,11.9l7,18.9h-14
			L32.3,11.9z"/>
		<path class="st0" d="M83.1,35.4c-2.6,3-5.8,4.5-9.5,4.4c-7.3,0-12.9-6.5-12.9-14.6c0.1-8.4,5.4-14.3,12.9-14.3
			c3.7,0,6.8,1.5,9.4,4.4c0.2,0.2,0.5,0.2,0.7,0l4.2-4.3c0.2-0.2,0.2-0.5,0-0.8c-3.5-4.2-8.7-6.5-14.7-6.5
			c-11.8,0-20.3,9.1-20.3,21.6S61.4,47,73.2,47c6.2,0,11.2-2.3,14.8-6.6c0.2-0.2,0.2-0.6,0-0.8l-4.2-4.3
			C83.6,35.2,83.3,35.2,83.1,35.4z"/>
	</g>
	<g>
		<path class="st0" d="M96.2,51.4h-3.7c0,0-0.1,0-0.1,0.1c0,2.3-1.9,4.1-4.2,4.1H11.7c-2.3,0-4.1-1.8-4.2-4.1c0,0,0-0.1-0.1-0.1H3.8
			c0,0-0.1,0-0.1,0.1c0,4.4,3.6,7.9,8,7.9h76.5C92.6,59.4,96.2,55.8,96.2,51.4C96.3,51.4,96.2,51.4,96.2,51.4z"/>
		<path class="st0" d="M49.3,73.8c0.1-2.5,2.3-4.4,2.3-4.4c1-0.9,1.2-2.4,0.3-3.4c-0.4-0.5-1-0.8-1.7-0.9c-0.6-0.1-1.3,0.1-1.8,0.5
			c-0.2,0.1-3.8,3.2-4.1,7.9c-0.2,3.1,1.2,6,3.9,8.8c1.7,1.7,2.5,3.4,2.5,5.1c-0.1,2.8-2.3,4.9-2.4,5c-0.5,0.4-0.8,1-0.8,1.7
			c0,0.7,0.2,1.3,0.6,1.8c0.5,0.5,1.1,0.8,1.8,0.8c0.6,0,1.2-0.2,1.6-0.6c0.2-0.1,3.9-3.5,4-8.5c0.1-3.1-1.2-6-3.9-8.7
			C50,77.2,49.2,75.5,49.3,73.8z"/>
		<path class="st0" d="M26.3,71c0.1-2.5,2.3-4.4,2.3-4.4c1-0.9,1.2-2.4,0.3-3.5c-0.4-0.5-1-0.8-1.7-0.9c-0.7-0.1-1.3,0.1-1.8,0.5
			c-0.2,0.1-3.8,3.2-4.1,7.9c-0.2,3.1,1.2,6,3.9,8.8c1.7,1.7,2.5,3.4,2.5,5.1c-0.1,2.8-2.3,4.9-2.4,5c-1,0.9-1.1,2.5-0.2,3.5
			c0.5,0.5,1.1,0.8,1.8,0.8c0.6,0,1.2-0.2,1.6-0.6c0.2-0.1,3.9-3.5,4-8.5c0.1-3.1-1.2-6-3.9-8.7C27.1,74.3,26.3,72.6,26.3,71z"/>
		<path class="st0" d="M71.3,71c0.1-2.5,2.3-4.4,2.3-4.4c1-0.9,1.2-2.4,0.3-3.5c-0.4-0.5-1-0.8-1.7-0.9c-0.7-0.1-1.3,0.1-1.8,0.5
			c-0.2,0.1-3.8,3.2-4.1,7.9c-0.2,3.1,1.2,6,3.9,8.8c1.7,1.7,2.5,3.4,2.5,5.1c-0.1,2.8-2.3,4.9-2.4,5c-0.5,0.4-0.8,1-0.8,1.7
			c0,0.7,0.2,1.3,0.6,1.8c0.5,0.5,1.1,0.8,1.8,0.8c0.6,0,1.2-0.2,1.6-0.6c0.2-0.1,3.9-3.5,4-8.5c0.1-3.1-1.2-6-3.9-8.7
			C72,74.3,71.2,72.6,71.3,71z"/>
	</g>
</g>
</svg>
