<svg xmlns="http://www.w3.org/2000/svg" width="72.424" height="35.588" viewBox="0 0 72.424 35.588"><defs><style>.a{fill:#addbef;}</style></defs><path class="a" d="M594.73,99.041h-16l-3.063,7.375H567.5L582.855,72h7.9l15.392,34.416h-8.358Zm-2.5-6.051-5.446-13.161L581.3,92.99Z" transform="translate(-567.5 -71.395)"/><path class="a" d="M672.2,88.213c0-10.363,7.98-17.813,18.683-17.813,5.938,0,10.93,2.156,14.145,6.089l-5.106,4.727a11.12,11.12,0,0,0-8.661-4.047,10.564,10.564,0,0,0-11.005,11.005,10.544,10.544,0,0,0,11.005,11.005,10.923,10.923,0,0,0,8.661-4.085l5.106,4.727c-3.252,3.971-8.207,6.165-14.22,6.165C680.142,105.988,672.2,98.575,672.2,88.213Z" transform="translate(-632.603 -70.4)"/></svg>