<svg xmlns="http://www.w3.org/2000/svg" width="79.45" height="53.235" viewBox="0 0 79.45 53.235"><defs><style>.a{fill:#addbef;}</style></defs><g transform="translate(0)"><g transform="translate(0)"><path class="a" d="M65.93,656.484a44.235,44.235,0,0,0-9.757,4.992,42.435,42.435,0,0,1-8.056,4.312l-4.538,1.4c-12.556,2.837-19.364-4.879-19.742-5.295a2.269,2.269,0,0,0-3.479,2.912A23.188,23.188,0,0,0,30.569,671.2a25.5,25.5,0,0,0,7.564,1.135c5.484,0,12.4-1.7,20.536-7.11,8.774-5.862,17.624-7.677,26.284-5.446a28.762,28.762,0,0,1,10.589,5.219,2.25,2.25,0,0,0,2.988-3.366,32.394,32.394,0,0,0-12.253-6.165,33.26,33.26,0,0,0-15.884-.3Z" transform="translate(-19.846 -628.929)"/><path class="a" d="M65.93,682.484a44.235,44.235,0,0,0-9.757,4.992,42.419,42.419,0,0,1-8.056,4.311l-4.538,1.4c-12.556,2.837-19.364-4.879-19.742-5.295a2.269,2.269,0,0,0-3.479,2.912A23.19,23.19,0,0,0,30.569,697.2a25.5,25.5,0,0,0,7.564,1.135c5.484,0,12.4-1.7,20.536-7.11,8.774-5.862,17.624-7.677,26.284-5.446a28.763,28.763,0,0,1,10.589,5.219,2.25,2.25,0,1,0,2.988-3.366,32.391,32.391,0,0,0-12.253-6.165,33.263,33.263,0,0,0-15.884-.3Z" transform="translate(-19.846 -645.096)"/><g transform="translate(14.657 8.873)"><path class="a" d="M60.642,636.431a2.034,2.034,0,0,1-2.042-2.042c0-13.123,11.837-23.788,26.436-23.788a27.254,27.254,0,0,1,21.973,10.552,2.027,2.027,0,1,1-3.252,2.421,23.21,23.21,0,0,0-18.721-8.925c-12.329,0-22.351,8.85-22.351,19.7A2.042,2.042,0,0,1,60.642,636.431Z" transform="translate(-58.6 -610.6)"/></g><g transform="translate(5.404 22.69)"><path class="a" d="M39.568,652.719a1.669,1.669,0,0,1-.832-.189l-3.4-1.513A2.031,2.031,0,0,1,37,647.311l3.4,1.513a2.037,2.037,0,0,1,1.021,2.685A2.058,2.058,0,0,1,39.568,652.719Z" transform="translate(-34.135 -647.135)"/></g><g transform="translate(12.6 9.085)"><path class="a" d="M58.206,617.87a1.921,1.921,0,0,1-1.324-.492l-3.026-2.647a2.037,2.037,0,0,1,2.685-3.063l3.026,2.647a2.033,2.033,0,0,1,.189,2.874A2.247,2.247,0,0,1,58.206,617.87Z" transform="translate(-53.161 -611.161)"/></g><g transform="translate(27.33 0.367)"><path class="a" d="M95.661,595.973a2.081,2.081,0,0,1-1.891-1.286l-1.513-3.782a2.037,2.037,0,0,1,3.782-1.513l1.513,3.782a2.034,2.034,0,0,1-1.135,2.647A2.69,2.69,0,0,1,95.661,595.973Z" transform="translate(-92.11 -588.11)"/></g><g transform="translate(45.872)"><path class="a" d="M143.167,594.613a1.92,1.92,0,0,1-.643-.114,2.047,2.047,0,0,1-1.286-2.572l1.135-3.4a2.033,2.033,0,1,1,3.858,1.286l-1.135,3.4A2.107,2.107,0,0,1,143.167,594.613Z" transform="translate(-141.139 -587.139)"/></g><g transform="translate(59.936 8.164)"><path class="a" d="M180.358,615.334a1.975,1.975,0,0,1-1.437-.605,2.031,2.031,0,0,1,0-2.874l2.534-2.534a2.032,2.032,0,1,1,2.874,2.874l-2.534,2.534A2.037,2.037,0,0,1,180.358,615.334Z" transform="translate(-178.325 -608.725)"/></g></g></g></svg>