<?xml version="1.0" encoding="utf-8"?>
<!-- Generator: Adobe Illustrator 24.2.1, SVG Export Plug-In . SVG Version: 6.00 Build 0)  -->
<svg version="1.1" id="Layer_1" xmlns="http://www.w3.org/2000/svg" xmlns:xlink="http://www.w3.org/1999/xlink" x="0px" y="0px"
	 viewBox="0 0 100 100" style="enable-background:new 0 0 100 100;" xml:space="preserve">
<style type="text/css">
	.st0{fill:#1D4C81;}
	.st1{fill:#294B81;}
</style>
<g>
	<path class="st0" d="M98.6,55.3c-0.2-0.2-5.9-5.2-15.3-7.7c-6.5-1.7-13.2-1.9-19.9-0.4l-5.6,1.6l0,0c-4.1,1.5-8.2,3.6-12.2,6.2
		c-3.3,2.2-6.7,4-9.9,5.3l-5.6,1.7c-15.4,3.5-23.7-6-24-6.4c-1.1-1.4-3.2-1.5-4.5-0.4c-0.7,0.6-1.1,1.3-1.1,2.2
		c-0.1,0.9,0.2,1.7,0.7,2.4c0.2,0.2,4.6,5.4,12.8,8c3,1,6.2,1.4,9.5,1.4c8.2,0,16.9-3,25.7-8.9c10.8-7.2,21.6-9.4,32.2-6.7
		c7.9,2.1,12.9,6.4,13,6.4c1.3,1.2,3.4,1.1,4.6-0.3c0.6-0.6,0.9-1.5,0.8-2.3S99.2,55.9,98.6,55.3z"/>
	<path class="st0" d="M98.6,73.1c-0.2-0.2-5.9-5.2-15.3-7.7C76.7,63.7,70,63.5,63.3,65c0,0-3.1,0.7-5.7,1.6
		c-2.4,0.9-7.1,2.8-12.2,6.2c-3.5,2.4-7.6,4.3-9.9,5.3c-2.3,0.9-5.5,1.7-5.5,1.7c-15.4,3.5-23.7-6-24-6.4c-1.1-1.4-3.2-1.5-4.5-0.4
		c-0.7,0.6-1.1,1.3-1.1,2.2c-0.1,0.9,0.2,1.7,0.7,2.4c0.2,0.2,4.6,5.4,12.8,8c3,1,6.2,1.4,9.5,1.4c8.2,0,16.9-3,25.7-8.9
		c10.8-7.2,21.6-9.4,32.2-6.7c7.9,2.1,12.9,6.4,13,6.4c1.3,1.2,3.4,1.1,4.6-0.3c0.6-0.6,0.9-1.5,0.8-2.3S99.2,73.7,98.6,73.1z"/>
	<path class="st0" d="M79.2,39C73,30.7,62.7,25.7,51.6,25.7c-18.3,0-33.2,13.4-33.2,29.9c0,1.6,1.3,2.9,2.9,2.9
		c1.6,0,2.9-1.3,2.9-2.9c0-13.2,12.2-24,27.3-24c9.2,0,17.8,4.1,22.9,10.9c1,1.3,2.8,1.6,4.1,0.6S80.2,40.3,79.2,39z"/>
	<path class="st0" d="M15.6,41.7l-4.1-2.1c-1.4-0.7-3.2-0.1-3.9,1.3c-0.3,0.7-0.4,1.5-0.2,2.2c0.2,0.7,0.8,1.3,1.5,1.7l4.1,2.1
		c0.4,0.2,0.8,0.3,1.2,0.3c0,0,0.1,0,0.1,0c1.1,0,2.1-0.6,2.6-1.6C17.6,44.2,17.1,42.4,15.6,41.7z"/>
	<path class="st0" d="M25.4,27.1l-3.6-3.4c-1.2-1.1-3-1.1-4.1,0.1c-0.5,0.6-0.8,1.3-0.8,2.1s0.3,1.5,0.9,2.1l3.6,3.4
		c0.5,0.5,1.2,0.8,1.9,0.8c0,0,0.1,0,0.1,0c0.8,0,1.6-0.3,2.1-0.9c0.5-0.6,0.8-1.3,0.8-2.1S26,27.7,25.4,27.1z"/>
	<path class="st0" d="M44.4,19.7l-1.5-4.8c-0.2-0.7-0.8-1.4-1.5-1.7c-0.7-0.4-1.5-0.4-2.2-0.2c-1.5,0.5-2.4,2.1-1.9,3.7l1.5,4.8
		c0.4,1.1,1.4,1.9,2.6,2c0,0,0.1,0,0.1,0c0.3,0,0.7,0,1-0.1c0.7-0.2,1.4-0.8,1.7-1.5C44.6,21.3,44.7,20.5,44.4,19.7z"/>
	<path class="st0" d="M67.6,15.3c-0.3-0.7-0.9-1.3-1.6-1.5c-1.5-0.6-3.2,0.2-3.8,1.7l-1.6,4.2c-0.6,1.5,0.2,3.2,1.7,3.8
		c0.3,0.1,0.6,0.2,0.9,0.2c0,0,0.1,0,0.1,0c1.2,0,2.3-0.7,2.7-1.9l1.6-4.1C67.9,16.8,67.9,16,67.6,15.3z"/>
	<path class="st0" d="M85.7,25.5c-1.1-1.2-2.9-1.3-4.1-0.2l-3.3,3c-0.6,0.5-0.9,1.3-1,2c0,0.8,0.2,1.5,0.8,2.1c0.5,0.6,1.2,0.9,2,1
		h0c0,0,0.1,0,0.1,0c0.7,0,1.4-0.3,2-0.8l3.3-3c0.6-0.5,0.9-1.3,1-2C86.5,26.8,86.3,26.1,85.7,25.5z"/>
</g>
</svg>
