<svg xmlns="http://www.w3.org/2000/svg" width="46.745" height="46.745" viewBox="0 0 46.745 46.745"><defs><style>.a{fill:#a6c72a;}.b{fill:#68bc40;}.c{fill:#55a452;}</style></defs><g transform="translate(-16 -16.001)"><circle class="a" cx="14.512" cy="14.512" r="14.512" transform="translate(24.862 24.862)"/><rect class="b" width="3.055" height="5.346" transform="translate(37.846 21.043)"/><ellipse class="a" cx="3.055" cy="3.437" rx="3.055" ry="3.437" transform="translate(36.318 16.461)"/><rect class="b" width="3.116" height="5.454" transform="translate(28.675 23.96) rotate(-30)"/><circle class="a" cx="3.116" cy="3.116" r="3.116" transform="translate(26.518 19.389)"/><rect class="b" width="3.116" height="5.454" transform="translate(22.401 31.374) rotate(-60)"/><circle class="a" cx="3.116" cy="3.116" r="3.116" transform="translate(19.389 26.519)"/><rect class="b" width="3.055" height="5.346" transform="translate(21.043 40.902) rotate(-90)"/><ellipse class="a" cx="3.437" cy="3.055" rx="3.437" ry="3.055" transform="translate(16.46 36.319)"/><rect class="b" width="3.116" height="5.454" transform="translate(23.959 50.072) rotate(-120)"/><circle class="a" cx="3.116" cy="3.116" r="3.116" transform="translate(19.389 45.996)"/><rect class="b" width="3.116" height="5.454" transform="translate(31.373 56.346) rotate(-150)"/><circle class="a" cx="3.116" cy="3.116" r="3.116" transform="translate(26.518 53.125)"/><rect class="b" width="3.055" height="5.346" transform="translate(40.901 57.705) rotate(180)"/><ellipse class="a" cx="3.055" cy="3.437" rx="3.055" ry="3.437" transform="translate(36.318 55.413)"/><rect class="b" width="3.116" height="5.454" transform="translate(50.072 54.788) rotate(150)"/><circle class="a" cx="3.116" cy="3.116" r="3.116" transform="translate(45.995 53.125)"/><rect class="b" width="3.116" height="5.454" transform="translate(56.345 47.373) rotate(120)"/><circle class="a" cx="3.116" cy="3.116" r="3.116" transform="translate(53.125 45.996)"/><rect class="b" width="3.055" height="5.346" transform="translate(57.704 37.847) rotate(90)"/><ellipse class="a" cx="3.437" cy="3.055" rx="3.437" ry="3.055" transform="translate(55.413 36.319)"/><rect class="b" width="3.116" height="5.454" transform="translate(54.787 28.675) rotate(60)"/><circle class="a" cx="3.116" cy="3.116" r="3.116" transform="translate(53.125 26.519)"/><rect class="b" width="3.116" height="5.454" transform="translate(47.373 22.401) rotate(30)"/><circle class="a" cx="3.116" cy="3.116" r="3.116" transform="translate(45.995 19.389)"/><circle class="c" cx="3.055" cy="3.055" r="3.055" transform="translate(36.318 36.319)"/><rect class="c" width="3.055" height="3.819" transform="translate(37.846 31.736)"/><circle class="b" cx="3.055" cy="3.055" r="3.055" transform="translate(36.318 27.917)"/><rect class="c" width="3.116" height="3.895" transform="translate(31.847 36.828) rotate(-60)"/><circle class="b" cx="3.116" cy="3.116" r="3.116" transform="translate(28.835 31.972)"/><rect class="c" width="3.116" height="3.895" transform="translate(33.405 44.618) rotate(-120)"/><circle class="b" cx="3.116" cy="3.116" r="3.116" transform="translate(28.835 40.542)"/><rect class="c" width="3.055" height="3.819" transform="translate(40.901 47.012) rotate(180)"/><circle class="b" cx="3.055" cy="3.055" r="3.055" transform="translate(36.318 44.72)"/><rect class="c" width="3.116" height="3.895" transform="translate(46.899 41.92) rotate(120)"/><circle class="b" cx="3.116" cy="3.116" r="3.116" transform="translate(43.679 40.542)"/><rect class="c" width="3.116" height="3.895" transform="translate(45.341 34.129) rotate(60)"/><circle class="b" cx="3.116" cy="3.116" r="3.116" transform="translate(43.679 31.972)"/><path d="M217.556,135.013v.779h1.558v-1.2a.779.779,0,0,0-.389-.674,2.337,2.337,0,1,1,2.336,0,.779.779,0,0,0-.389.674v1.2h1.558v-.779a3.9,3.9,0,1,0-4.675,0Z" transform="translate(-180.52 -101.093)"/><path d="M141.732,179.263a3.911,3.911,0,0,0,3.478.209l.675.389.779-1.349-1.036-.6a.779.779,0,0,0-.779,0,2.337,2.337,0,1,1,1.168-2.023.779.779,0,0,0,.39.674l1.036.6.779-1.349-.675-.389a3.9,3.9,0,1,0-5.815,3.839Z" transform="translate(-111.728 -140.8)"/><path d="M148.227,263.264l-.779-1.349-1.036.6a.779.779,0,0,0-.39.674,2.337,2.337,0,1,1-1.168-2.023.779.779,0,0,0,.779,0l1.036-.6-.779-1.349-.675.389a3.9,3.9,0,1,0,2.337,4.048Z" transform="translate(-111.734 -219.529)"/><path d="M222.23,304.779V304h-1.558v1.2a.779.779,0,0,0,.389.674,2.337,2.337,0,1,1-2.336,0,.779.779,0,0,0,.389-.674V304h-1.558v.779a3.9,3.9,0,1,0,4.675,0Z" transform="translate(-180.519 -259.952)"/><path d="M292.059,259.814a3.911,3.911,0,0,0-3.478-.209l-.675-.389-.779,1.349,1.036.6a.779.779,0,0,0,.779,0,2.337,2.337,0,1,1-1.168,2.023.779.779,0,0,0-.39-.674l-1.036-.6-.779,1.349.675.389a3.9,3.9,0,1,0,5.815-3.839Z" transform="translate(-243.316 -219.529)"/><path d="M291.12,172.116a3.869,3.869,0,0,0-2.956.389,3.911,3.911,0,0,0-1.92,2.908l-.675.39.779,1.349,1.036-.6a.779.779,0,0,0,.39-.674,2.337,2.337,0,1,1,1.168,2.023.779.779,0,0,0-.779,0l-1.036.6.779,1.349.675-.39a3.9,3.9,0,1,0,2.538-7.345Z" transform="translate(-243.317 -140.79)"/><path d="M55.734,41.711a3.9,3.9,0,1,0,0-4.675H54.78a15.482,15.482,0,0,0-.894-3.343l.824-.476a3.9,3.9,0,1,0-2.337-4.048l-.828.478A15.658,15.658,0,0,0,49.1,27.2l.478-.828a3.9,3.9,0,1,0-4.048-2.337l-.476.824a15.483,15.483,0,0,0-3.343-.894v-.954a3.9,3.9,0,1,0-4.675,0v.954a15.482,15.482,0,0,0-3.343.894l-.476-.824a3.9,3.9,0,1,0-4.048,2.337l.478.828A15.658,15.658,0,0,0,27.2,29.647l-.828-.478a3.9,3.9,0,1,0-2.337,4.048l.824.476a15.482,15.482,0,0,0-.894,3.343h-.954a3.9,3.9,0,1,0,0,4.675h.954a15.483,15.483,0,0,0,.894,3.343l-.824.476a3.9,3.9,0,1,0,2.337,4.048L27.2,49.1a15.658,15.658,0,0,0,2.446,2.446l-.478.828a3.9,3.9,0,1,0,4.048,2.337l.476-.824a15.483,15.483,0,0,0,3.343.894v.954a3.9,3.9,0,1,0,4.675,0v-.954a15.483,15.483,0,0,0,3.343-.894l.476.824a3.9,3.9,0,1,0,4.048-2.337l-.478-.828A15.658,15.658,0,0,0,51.546,49.1l.828.478a3.9,3.9,0,1,0,2.337-4.048l-.824-.476a15.482,15.482,0,0,0,.894-3.343Zm-3.216,2.553-.506-.292-.779,1.349,3.06,1.767a.779.779,0,0,0,.779,0A2.337,2.337,0,1,1,53.9,49.111a.779.779,0,0,0-.39-.674l-3.06-1.767-.779,1.349.5.291a14.1,14.1,0,0,1-1.868,1.868l-.291-.5-1.349.779,1.767,3.06a.779.779,0,0,0,.674.39,2.337,2.337,0,1,1-2.023,1.168.779.779,0,0,0,0-.779l-1.767-3.06-1.349.779.292.506a13.921,13.921,0,0,1-2.553.682v-.583H40.152v3.533a.779.779,0,0,0,.389.674,2.337,2.337,0,1,1-2.336,0,.779.779,0,0,0,.389-.674V52.618H37.036V53.2a13.92,13.92,0,0,1-2.553-.682l.292-.506-1.349-.779-1.767,3.06a.779.779,0,0,0,0,.779A2.337,2.337,0,1,1,29.636,53.9a.779.779,0,0,0,.674-.39l1.767-3.06-1.349-.779-.291.5a14.1,14.1,0,0,1-1.868-1.868l.5-.291-.779-1.349-3.06,1.767a.779.779,0,0,0-.39.674,2.337,2.337,0,1,1-1.168-2.023.779.779,0,0,0,.779,0l3.06-1.767-.779-1.349-.506.292a13.922,13.922,0,0,1-.682-2.553h.583V40.153H22.6a.779.779,0,0,0-.674.389,2.337,2.337,0,1,1,0-2.336.779.779,0,0,0,.674.389h3.533V37.036h-.583a13.921,13.921,0,0,1,.682-2.553l.506.292.779-1.349-3.06-1.767a.779.779,0,0,0-.779,0,2.337,2.337,0,1,1,1.168-2.023.779.779,0,0,0,.39.674l3.06,1.767.779-1.349-.5-.291a14.1,14.1,0,0,1,1.868-1.868l.291.5,1.349-.779-1.767-3.06a.779.779,0,0,0-.674-.39,2.337,2.337,0,1,1,2.023-1.168.779.779,0,0,0,0,.779l1.767,3.06,1.349-.779-.292-.506a13.921,13.921,0,0,1,2.553-.682v.583h1.558V22.6a.779.779,0,0,0-.389-.674,2.337,2.337,0,1,1,2.336,0,.779.779,0,0,0-.389.674v3.533H41.71v-.583a13.922,13.922,0,0,1,2.553.682l-.292.506,1.349.779,1.767-3.06a.779.779,0,0,0,0-.779,2.337,2.337,0,1,1,2.023,1.168.779.779,0,0,0-.674.39l-1.767,3.06,1.349.779.291-.5a14.1,14.1,0,0,1,1.868,1.868l-.5.291.779,1.349,3.06-1.767a.779.779,0,0,0,.39-.674,2.337,2.337,0,1,1,1.168,2.023.779.779,0,0,0-.779,0l-3.06,1.767.779,1.349.506-.292a13.922,13.922,0,0,1,.682,2.553h-.583v1.558h3.533a.779.779,0,0,0,.674-.389,2.337,2.337,0,1,1,0,2.336.779.779,0,0,0-.674-.389H52.618v1.558H53.2a13.921,13.921,0,0,1-.682,2.553Z" transform="translate(0 0)"/><path d="M216,219.9a3.9,3.9,0,1,0,3.9-3.9A3.9,3.9,0,0,0,216,219.9Zm6.233,0a2.337,2.337,0,1,1-2.337-2.337A2.337,2.337,0,0,1,222.233,219.9Z" transform="translate(-180.522 -180.522)"/></g></svg>