<?xml version="1.0" encoding="utf-8"?>
<!-- Generator: Adobe Illustrator 25.2.1, SVG Export Plug-In . SVG Version: 6.00 Build 0)  -->
<svg version="1.1" id="Layer_1" xmlns="http://www.w3.org/2000/svg" xmlns:xlink="http://www.w3.org/1999/xlink" x="0px" y="0px"
	 viewBox="0 0 128 128" style="enable-background:new 0 0 128 128;" xml:space="preserve">
<style type="text/css">
	.st0{fill:#FFFFFF;}
	.st1{fill:#DC0032;}
	.st2{fill:#0D1E7E;}
</style>
<g>
	<path class="st0" d="M113.7,58.4c-0.2-1.5-0.4-2.9-0.7-4.4H97l12.6-10.7c-1.1-2.3-2.3-4.6-3.7-6.7L85.3,54h-8.7l25.9-21.9
		c-0.8-1-1.6-1.9-2.5-2.8L74.2,51.2V15c-1.3-0.3-2.6-0.5-3.9-0.7v44H113.7z"/>
	<path class="st0" d="M70.3,113.6c1.3-0.2,2.6-0.4,3.9-0.7V78.7l24.6,21.2c1.9-1.9,3.7-3.9,5.3-6.1l-20.8-18H92L107.3,89
		c0.6-1,1.1-1.9,1.6-3L97,75.8h15.6c0.3-1.4,0.6-2.9,0.9-4.3H70.3V113.6z"/>
	<path class="st0" d="M58.7,14.3c-1.3,0.1-2.6,0.3-3.9,0.6l0,36.4L28.5,28.8c-1.7,1.7-3.2,3.5-4.7,5.4L47.1,54h-8.7L20.7,39
		c-0.7,1.2-1.3,2.4-1.9,3.7L32.1,54H15c-0.3,1.4-0.5,2.9-0.7,4.4h44.4V14.3z"/>
	<path class="st0" d="M54.8,113.2c1.3,0.2,2.6,0.4,3.9,0.6V71.5H14.6c0.2,1.5,0.5,2.9,0.9,4.3h16.6L19.5,86.7c1.3,2.6,2.8,5,4.6,7.3
		l21.1-18.2h8.7L27.7,98.4c0.7,0.7,1.3,1.4,2,2l25.1-21.7V113.2z"/>
	<path class="st1" d="M85.3,54l20.5-17.4c-1-1.6-2.1-3.1-3.3-4.5L76.6,54H85.3z"/>
	<path class="st1" d="M83.3,75.8l20.8,18c1.1-1.5,2.2-3.1,3.1-4.8L92,75.8H83.3z"/>
	<path class="st1" d="M47.1,54L23.8,34.3c-1.1,1.5-2.2,3.1-3.1,4.7l17.7,15H47.1z"/>
	<path class="st1" d="M45.1,75.8L24,94c1.1,1.5,2.4,3,3.7,4.3l26.1-22.6H45.1z"/>
	<path class="st2" d="M100,29.3C93.2,22.2,84.3,17.1,74.2,15v36.2L100,29.3z"/>
	<path class="st2" d="M54.8,14.8c-10.2,1.9-19.3,6.9-26.3,14l26.3,22.4L54.8,14.8z"/>
	<path class="st2" d="M113,54c-0.8-3.7-1.9-7.3-3.5-10.7L97,54H113z"/>
	<path class="st2" d="M108.9,86c1.6-3.2,2.8-6.7,3.7-10.2H97L108.9,86z"/>
	<path class="st2" d="M54.8,78.7l-25.1,21.7c6.8,6.4,15.5,11,25.1,12.8V78.7z"/>
	<path class="st2" d="M74.2,113c9.4-2,17.9-6.6,24.6-13.1L74.2,78.7V113z"/>
	<path class="st2" d="M15.4,75.8c0.9,3.8,2.3,7.5,4.1,10.9l12.6-10.9H15.4z"/>
	<path class="st2" d="M18.8,42.7c-1.7,3.6-3,7.4-3.8,11.3h17.1L18.8,42.7z"/>
	<path class="st1" d="M58.7,113.7c1.7,0.2,3.5,0.3,5.3,0.3c2.1,0,4.3-0.1,6.3-0.4V71.5h43.1c0.4-2.4,0.6-4.9,0.6-7.5
		c0-1.9-0.1-3.8-0.3-5.6H70.3v-44C68.3,14.1,66.1,14,64,14c-1.8,0-3.6,0.1-5.3,0.3v44.1H14.3C14.1,60.2,14,62.1,14,64
		c0,2.5,0.2,5,0.6,7.5h44.1V113.7z"/>
</g>
</svg>
