<svg xmlns="http://www.w3.org/2000/svg" width="24" height="34.35" viewBox="0 0 24 34.35"><defs><style>.a{fill:#ecb72b;}.b{fill:#5085f7;}.c{fill:#da2f2a;}.d{fill:#4274eb;}.e{fill:#60a850;}</style></defs><g transform="translate(-77.133)"><path class="a" d="M109.738,141.817l-3.565,5.264-5.271,5.245c-1.96-2.492-4.1-4.905-5.407-7.825l2.841-4.353,4.358-4.2a4.585,4.585,0,0,0,6.811,6.122C109.586,141.986,109.664,141.9,109.738,141.817Z" transform="translate(-17.13 -126.825)"/><path class="b" d="M211.469,22.665a4.585,4.585,0,0,0-6.8-6.136q-.113.113-.216.231l3.006-4.887,4.079-3.543a12.031,12.031,0,0,1,7.021,5.9l-2.976,4.8Z" transform="translate(-118.779 -7.771)"/><path class="c" d="M85.564,68.841l-7.2,8.557a13.656,13.656,0,0,1-1.226-5.336c0-.113-.005-.228-.005-.342a11.951,11.951,0,0,1,2.8-7.706Z" transform="translate(0 -59.72)"/><path class="d" d="M124.507,9.121l-5.631-4.826A12.017,12.017,0,0,1,131.7.558Z" transform="translate(-38.942)"/><path class="e" d="M193.438,101.846a11.949,11.949,0,0,0-1.352-5.539l-16.01,19.042a19.876,19.876,0,0,1,4.172,7.612c.022.093.046.2.071.325a1.143,1.143,0,0,0,2.238,0c.025-.123.049-.232.071-.325,1.841-7.775,10.587-11.749,10.8-20.772,0-.114.005-.228.005-.342Z" transform="translate(-92.305 -89.846)"/></g></svg>