<svg xmlns="http://www.w3.org/2000/svg" width="60.74" height="57.779" viewBox="0 0 60.74 57.779"><defs><style>.a{fill:#addbef;}</style></defs><g transform="translate(0 0)"><path class="a" d="M650.538,358.01a11.292,11.292,0,0,0-9.644-10.816,8.667,8.667,0,0,0,2.458-6.127v-.151c-.113-4.16-3.139-7.6-7.564-8.736a10.726,10.726,0,0,0,3.668-8.245v-.151a10.57,10.57,0,0,0-9.077-10.363,43.64,43.64,0,0,0-14.371,0,10.61,10.61,0,0,0-9.039,10.438v.34a10.551,10.551,0,0,0,3.1,7.375c-1.4.076-2.685.113-3.858.189-5.522.34-9.871,4.387-9.871,9.19v.378a8.716,8.716,0,0,0,2.534,5.9,11.087,11.087,0,0,0-9.077,10.816v.567a11.139,11.139,0,0,0,9.947,10.892,190.527,190.527,0,0,0,20.271,1.1,196.788,196.788,0,0,0,20.574-1.1,11.223,11.223,0,0,0,9.947-11.346Zm-20.612-26.587a1.27,1.27,0,0,0-.529.189c-3.253-.151-6.505-.227-9.72-.227-1.021,0-2.08,0-3.1.038h-.038a7.36,7.36,0,0,1-6.316-7.224v-.34a7.284,7.284,0,0,1,6.24-7.186,42.314,42.314,0,0,1,13.464,0,7.318,7.318,0,0,1,6.278,7.186v.151A7.364,7.364,0,0,1,629.926,331.423Zm-10.173,3.253c4.5,0,9.039.151,13.539.416,3.744.227,6.732,2.836,6.807,5.938v.151c.076,3.139-2.761,5.749-6.505,6.127-.832.038-1.551.076-2.269.113h-.114c-8.245.378-16.527.34-24.62-.076-3.858-.189-6.883-2.8-6.921-5.938v-.34c0-3.1,2.988-5.711,6.807-5.938C610.79,334.789,615.29,334.675,619.753,334.675Zm-19.742,15.733,4.387-.076h.227a15.246,15.246,0,0,0,1.777.227c4.387.227,8.888.34,13.35.34,4.538,0,9.115-.113,13.615-.34a.643.643,0,0,0,.265-.038h.114c3.4-.113,6.278-.076,6.618-.076a8.021,8.021,0,0,1,6.959,7.677v.151a7.933,7.933,0,0,1-7.034,8.018,187.619,187.619,0,0,1-40.164,0,7.91,7.91,0,0,1-7.034-7.715v-.529A7.811,7.811,0,0,1,600.011,350.408Z" transform="translate(-589.8 -312.825)"/><path class="a" d="M719.988,426.785a1.109,1.109,0,0,0-.946,1.248,4.34,4.34,0,0,1-.832,3.366,6.845,6.845,0,0,1-4.841,2.269,1.1,1.1,0,0,0,.113,2.193h.113a8.835,8.835,0,0,0,6.316-3.1,6.5,6.5,0,0,0,1.286-5.03A1.054,1.054,0,0,0,719.988,426.785Z" transform="translate(-666.02 -383.681)"/><path class="a" d="M663.2,446.1a162.855,162.855,0,0,1-22.729.113,1.1,1.1,0,0,0-.151,2.194c3.479.227,7,.3,10.476.3,4.16,0,8.358-.151,12.518-.454a1.1,1.1,0,0,0,1.021-1.172A1.04,1.04,0,0,0,663.2,446.1Z" transform="translate(-620.576 -395.693)"/><path class="a" d="M624.608,445.223,621.469,445a1.1,1.1,0,0,0-.151,2.193c1.059.076,2.118.151,3.139.227h.076a1.1,1.1,0,0,0,.076-2.194Z" transform="translate(-608.761 -395.009)"/><path class="a" d="M676.935,397.155h0c2.42-.038,4.841-.113,7.261-.265a1.1,1.1,0,0,0-.151-2.194c-2.382.114-4.765.227-7.148.265a1.1,1.1,0,0,0-1.1,1.1A1.156,1.156,0,0,0,676.935,397.155Z" transform="translate(-643.275 -363.732)"/><path class="a" d="M629.781,390.427c3.328.189,6.694.265,10.022.265h0a1.1,1.1,0,1,0,0-2.194c-3.29,0-6.618-.113-9.909-.265-1.664-.076-4.5-.567-4.5-2.836a1.1,1.1,0,0,0-2.194,0C623.2,388.347,625.658,390.238,629.781,390.427Z" transform="translate(-610.568 -357.269)"/><path class="a" d="M687.77,328.18a5.628,5.628,0,0,1,5.03,5.257v.113a1.11,1.11,0,0,0,1.1,1.021h.076a1.1,1.1,0,0,0,1.021-1.172v-.113a7.751,7.751,0,0,0-7-7.3,1.1,1.1,0,0,0-.227,2.193Z" transform="translate(-650.102 -321.004)"/><path class="a" d="M655.219,348.1a3.432,3.432,0,0,1-3.1-2.383,1.089,1.089,0,1,0-2.042.756,5.679,5.679,0,0,0,4.954,3.82h.114a1.1,1.1,0,0,0,1.1-.983A1.19,1.19,0,0,0,655.219,348.1Z" transform="translate(-627.232 -332.831)"/></g></svg>