<svg xmlns="http://www.w3.org/2000/svg" width="65.592" height="65.624" viewBox="0 0 65.592 65.624"><defs><style>.a{fill:#addbef;}</style></defs><g transform="translate(0)"><g transform="translate(0 0)"><path class="a" d="M352.647,88.324H298.377a5.667,5.667,0,0,1-5.677-5.677V28.377a5.667,5.667,0,0,1,5.677-5.677h54.237a5.667,5.667,0,0,1,5.677,5.677V82.614A5.667,5.667,0,0,1,352.647,88.324ZM298.377,25.458a2.943,2.943,0,0,0-2.951,2.951V82.647a2.943,2.943,0,0,0,2.951,2.951h54.237a2.943,2.943,0,0,0,2.951-2.951V28.377a2.943,2.943,0,0,0-2.951-2.951H298.377Z" transform="translate(-292.7 -22.7)"/><g transform="translate(21.105 17.48)"><path class="a" d="M383.807,87.784c0,6.511-4.875,10.552-12.669,10.552h-5.87v8.051H358.5V77.2h12.637C378.931,77.2,383.807,81.241,383.807,87.784Zm-6.832,0c0-3.207-2.085-5.1-6.222-5.1h-5.517V92.852h5.517C374.89,92.852,376.975,90.96,376.975,87.784Z" transform="translate(-358.5 -77.2)"/></g></g></g></svg>