<?xml version="1.0" encoding="utf-8"?>
<!-- Generator: Adobe Illustrator 24.2.1, SVG Export Plug-In . SVG Version: 6.00 Build 0)  -->
<svg version="1.1" id="Layer_1" xmlns="http://www.w3.org/2000/svg" xmlns:xlink="http://www.w3.org/1999/xlink" x="0px" y="0px"
	 viewBox="0 0 100 100" style="enable-background:new 0 0 100 100;" xml:space="preserve">
<style type="text/css">
	.st0{fill:#1D4C81;}
	.st1{fill:#294B81;}
</style>
<g>
	<path class="st0" d="M89.5,1.4H10.5c-5,0-9.1,4.1-9.1,9.1v78.9c0,5,4.1,9.1,9.1,9.1h78.9c5,0,9.1-4.1,9.1-9.1V10.5
		C98.6,5.5,94.5,1.4,89.5,1.4z M92.9,89.5c0,1.9-1.5,3.5-3.5,3.5H10.5c-1.9,0-3.5-1.5-3.5-3.5V10.5c0-1.9,1.5-3.5,3.5-3.5h78.9
		c1.9,0,3.5,1.5,3.5,3.5V89.5z"/>
	<path class="st0" d="M51.7,61c15.5,0,23.8-8.9,23.8-20.7c0-11.9-8.2-20.8-23.8-20.8H27.4c-0.5,0-0.8,0.4-0.8,0.8V77
		c0,0.5,0.4,0.9,0.9,0.9h9.7c0.4,0,0.8-0.4,0.8-0.8V61.7c0-0.4,0.3-0.7,0.7-0.7H51.7z M37.9,51.6V29c0-0.4,0.3-0.7,0.7-0.7h12.2
		c9.2,0,14.4,4.4,14.4,12.1c0,7.6-5.3,12-14.4,12H38.7C38.3,52.3,37.9,52,37.9,51.6z"/>
</g>
</svg>
