<?xml version="1.0" encoding="utf-8"?>
<!-- Generator: Adobe Illustrator 24.2.1, SVG Export Plug-In . SVG Version: 6.00 Build 0)  -->
<svg version="1.1" id="Layer_1" xmlns="http://www.w3.org/2000/svg" xmlns:xlink="http://www.w3.org/1999/xlink" x="0px" y="0px"
	 viewBox="0 0 100 100" style="enable-background:new 0 0 100 100;" xml:space="preserve">
<style type="text/css">
	.st0{fill:#1D4C81;}
	.st1{fill:#294B81;}
</style>
<g>
	<path class="st0" d="M15.6,68.2c2.9,0.9,5.9,1.4,9.1,1.4c7.9,0,16.1-2.8,24.5-8.5c10.3-6.9,20.6-9,30.8-6.4
		c7.5,2,12.2,5.9,12.4,6.1c1.3,1.1,3.2,1,4.4-0.3c0.6-0.6,0.8-1.4,0.8-2.2s-0.4-1.6-1-2.1c-0.2-0.2-5.7-5-14.7-7.4
		c-6-1.6-12.2-1.8-18.5-0.5V21.5c0-2.5,1.4-4.7,3-4.7c1.7,0,3.1-1.4,3.1-3.1c0-1.7-1.4-3.1-3.1-3.1c-5.1,0-9.2,4.9-9.2,10.9v5.4
		H36.8v-5.4c0-2.5,1.4-4.7,3-4.7c1.7,0,3.1-1.4,3.1-3.1c0-1.7-1.4-3.1-3.1-3.1c-5.1,0-9.2,4.9-9.2,10.9v41.2
		C16.2,65.9,8.4,56.9,8,56.6c-1.1-1.3-3-1.5-4.4-0.4c-1.3,1.1-1.5,3.1-0.4,4.4C3.5,60.7,7.7,65.7,15.6,68.2z M57,47.7v2.4
		c-3.8,1.4-7.6,3.4-11.3,5.8c-3,2-6,3.6-8.9,4.8V47.7H57z M36.8,41.5v-8.4H57v8.4H36.8z"/>
	<path class="st0" d="M81.7,68.8c-4.4-1.2-11.8-1.9-19-0.4c-2.3,0.5-5.3,1.5-5.4,1.6c-3.9,1.4-7.8,3.4-11.6,5.9
		c-3.2,2.1-6.4,3.8-9.4,5.1c0,0-2.7,1-5.3,1.7c-14.3,3.4-22.8-6-22.9-6.1C6.9,75.2,5,75,3.7,76.1c-0.6,0.5-1,1.3-1.1,2.1
		c-0.1,0.8,0.2,1.6,0.7,2.3c0.2,0.2,4.4,5.2,12.3,7.7c2.9,0.9,5.9,1.4,9.1,1.4c7.9,0,16.1-2.8,24.5-8.5c10.3-6.9,20.6-9,30.8-6.4
		c7.5,2,12.2,5.9,12.4,6.1c1.3,1.1,3.2,1,4.4-0.3c0.6-0.6,0.8-1.4,0.8-2.2s-0.4-1.6-1-2.1C96.2,76,90.7,71.2,81.7,68.8z"/>
</g>
</svg>
