<svg xmlns="http://www.w3.org/2000/svg" width="79.486" height="49.127" viewBox="0 0 79.486 49.127"><defs><style>.a{fill:#1D4C81;}</style></defs><path class="a" d="M98.606,365.462A32.392,32.392,0,0,0,86.353,359.3a33.26,33.26,0,0,0-15.884-.3V335.85c0-2.345,1.324-4.311,2.912-4.311a2.269,2.269,0,1,0,0-4.538c-4.122,0-7.45,3.971-7.45,8.85v4.917H48.117V335.85c0-2.345,1.324-4.311,2.912-4.311a2.269,2.269,0,1,0,0-4.538c-4.122,0-7.45,3.971-7.45,8.85v35.134c-12.556,2.836-19.364-4.879-19.742-5.295a2.269,2.269,0,0,0-3.479,2.912,23.189,23.189,0,0,0,10.211,6.391,25.5,25.5,0,0,0,7.564,1.135c5.484,0,12.4-1.7,20.536-7.11,8.774-5.862,17.624-7.677,26.284-5.446a28.764,28.764,0,0,1,10.589,5.219,2.229,2.229,0,0,0,3.177-.189A2.181,2.181,0,0,0,98.606,365.462Zm-50.489-20.2H65.93V353.1H48.117Zm8.056,19.969a42.43,42.43,0,0,1-8.056,4.311V357.634H65.93v2.647A45.668,45.668,0,0,0,56.173,365.235Z" transform="translate(-19.846 -327)"/></svg>