<?xml version="1.0" encoding="utf-8"?>
<!-- Generator: Adobe Illustrator 24.2.1, SVG Export Plug-In . SVG Version: 6.00 Build 0)  -->
<svg version="1.1" id="Layer_1" xmlns="http://www.w3.org/2000/svg" xmlns:xlink="http://www.w3.org/1999/xlink" x="0px" y="0px"
	 viewBox="0 0 100 100" style="enable-background:new 0 0 100 100;" xml:space="preserve">
<style type="text/css">
	.st0{fill:#1D4C81;}
	.st1{fill:#294B81;}
</style>
<g>
	<path class="st0" d="M91.6,45.8h-6.7L54.1,15c0.3-0.6,0.4-1.2,0.4-1.9c0-2.5-2-4.5-4.5-4.5s-4.5,2-4.5,4.5c0,0.7,0.2,1.3,0.4,1.9
		L15.1,45.8H8.4c-4.1,0-7.4,3.3-7.4,7.4v32.6c0,4.1,3.3,7.4,7.4,7.4h83.2c4.1,0,7.4-3.3,7.4-7.4V53.3C99.1,49.2,95.7,45.8,91.6,45.8
		z M50,11.1c1.1,0,2,0.9,2,2s-0.9,2-2,2s-2-0.9-2-2S48.9,11.1,50,11.1z M47.9,17.1c0.6,0.3,1.4,0.6,2.1,0.6c0.8,0,1.5-0.2,2.1-0.6
		l28.7,28.7H19.1L47.9,17.1z M93.4,85.8c0,1-0.8,1.8-1.8,1.8H8.4c-1,0-1.8-0.8-1.8-1.8V53.3c0-1,0.8-1.8,1.8-1.8h83.2
		c1,0,1.8,0.8,1.8,1.8V85.8z"/>
	<g>
		<path class="st1" d="M15.6,77.5c-0.8-0.2-1.6-0.4-2.3-0.8c-0.7-0.3-1.3-0.7-1.9-1.2l1.5-2.8c0.7,0.6,1.5,1,2.4,1.3
			c0.9,0.3,1.8,0.5,2.8,0.5c1.1,0,1.9-0.2,2.5-0.6c0.6-0.4,0.9-0.9,0.9-1.6v0c0-0.5-0.1-0.8-0.4-1.1s-0.6-0.5-1-0.6s-1-0.2-1.7-0.4
			c0,0,0,0-0.1,0s0,0-0.1,0l-0.3,0c-1.2-0.2-2.2-0.4-3-0.7c-0.8-0.3-1.4-0.8-2-1.5s-0.8-1.7-0.8-3v0c0-1.1,0.3-2.1,0.8-2.9
			s1.3-1.4,2.2-1.9c1-0.4,2.2-0.6,3.5-0.6c0.6,0,1.3,0.1,1.9,0.2s1.3,0.4,1.9,0.6c0.6,0.3,1.2,0.6,1.8,1l-1.4,2.8
			c-0.7-0.5-1.4-0.8-2.1-1.1c-0.7-0.3-1.5-0.4-2.1-0.4c-1,0-1.8,0.2-2.4,0.5c-0.6,0.3-0.8,0.8-0.8,1.4v0c0,0.5,0.1,0.9,0.4,1.2
			s0.7,0.5,1.1,0.7c0.4,0.1,1,0.3,1.8,0.4c0,0,0.1,0,0.1,0c0,0,0.1,0,0.1,0c0,0,0.1,0,0.1,0c0,0,0.1,0,0.1,0
			c1.1,0.2,2.1,0.5,2.8,0.8c0.8,0.3,1.4,0.8,1.9,1.5c0.5,0.7,0.8,1.6,0.8,2.9v0c0,1.1-0.3,2.1-0.8,2.9s-1.3,1.4-2.3,1.8
			c-1,0.4-2.2,0.6-3.7,0.6C17.2,77.7,16.4,77.7,15.6,77.5z"/>
		<path class="st1" d="M33,59.8h2.1l6.8,17.7h-3.6L34,65.4l-4.2,12.1h-3.6L33,59.8z M29.5,71.5h9.3v3.2h-9.3V71.5z"/>
		<path class="st1" d="M45.8,77c-1-0.5-1.7-1.3-2.2-2.3c-0.5-1-0.8-2.2-0.8-3.6V59.8h3.3v11.4c0,1,0.3,1.8,0.8,2.4
			c0.5,0.6,1.3,0.8,2.3,0.8c1,0,1.8-0.3,2.3-0.8c0.5-0.6,0.8-1.4,0.8-2.4V59.8h3.3v11.3c0,1.4-0.3,2.6-0.8,3.6
			c-0.5,1-1.3,1.7-2.2,2.3c-1,0.5-2.1,0.8-3.5,0.8S46.8,77.5,45.8,77z"/>
		<path class="st1" d="M59.3,59.8h4.1l6.6,13.6l-0.3,0.3V59.8h3.2v17.7h-4.1l-6.6-13.4l0.3-0.3v13.7h-3.2V59.8z"/>
		<path class="st1" d="M81.6,59.8h2.1l6.8,17.7h-3.6l-4.2-12.1l-4.2,12.1h-3.6L81.6,59.8z M78.1,71.5h9.3v3.2h-9.3V71.5z"/>
	</g>
</g>
</svg>
