<?xml version="1.0" encoding="utf-8"?>
<!-- Generator: Adobe Illustrator 24.2.1, SVG Export Plug-In . SVG Version: 6.00 Build 0)  -->
<svg version="1.1" id="Layer_1" xmlns="http://www.w3.org/2000/svg" xmlns:xlink="http://www.w3.org/1999/xlink" x="0px" y="0px"
	 viewBox="0 0 100 100" style="enable-background:new 0 0 100 100;" xml:space="preserve">
<style type="text/css">
	.st0{fill:#1D4C81;}
	.st1{fill:#294B81;}
</style>
<g>
	<circle class="st0" cx="14" cy="85.9" r="11"/>
	<path class="st0" d="M10.2,51.4c-2.5,0-4.6,2-4.6,4.6c0,2.5,2,4.6,4.6,4.6c16.4,0,29.7,13.3,29.7,29.7c0,2.5,2,4.6,4.6,4.6
		c2.5,0,4.6-2,4.6-4.6C49,68.8,31.6,51.4,10.2,51.4z"/>
	<path class="st0" d="M10.3,28c-2.6,0-4.8,2.1-4.8,4.8c0,2.6,2.1,4.8,4.8,4.8c28.8,0,52.2,23.4,52.2,52.2c0,2.6,2.1,4.8,4.8,4.8
		c2.6,0,4.8-2.1,4.8-4.8C72,55.7,44.3,28,10.3,28z"/>
	<g>
		<path class="st0" d="M93.2,94.5c-2.6,0-4.6-2.1-4.6-4.6c0-42.6-35.1-77.2-78.3-77.2c-2.6,0-4.6-2.1-4.6-4.6s2.1-4.6,4.6-4.6
			c48.3,0,87.6,38.8,87.6,86.5C97.9,92.4,95.8,94.5,93.2,94.5z"/>
	</g>
</g>
</svg>
