<svg xmlns="http://www.w3.org/2000/svg" width="53.769" height="53.458" viewBox="0 0 53.769 53.458"><defs><style>.a{fill:#1D4C81;}</style></defs><g transform="translate(0)"><circle class="a" cx="7.681" cy="7.681" r="7.681" transform="translate(0 38.096)"/><path class="a" d="M57.272,99.5a3.172,3.172,0,1,0,0,6.344A20.625,20.625,0,0,1,77.89,126.462a3.172,3.172,0,0,0,6.344,0A27,27,0,0,0,57.272,99.5Z" transform="translate(-49.435 -80.53)"/><path class="a" d="M73.272,38.5a3.172,3.172,0,1,0,0,6.344,34.64,34.64,0,0,1,34.613,34.613,3.172,3.172,0,0,0,6.344,0A40.971,40.971,0,0,0,73.272,38.5Z" transform="translate(-60.459 -38.5)"/></g></svg>